<mxfile host="Electron" modified="2024-04-03T06:55:46.845Z" agent="Mozilla/5.0 (Windows NT 10.0; Win64; x64) AppleWebKit/537.36 (KHTML, like Gecko) draw.io/24.1.0 Chrome/120.0.6099.109 Electron/28.1.0 Safari/537.36" etag="n9Lo3IRf7k7sgwywTDOE" version="24.1.0" type="device">
  <diagram name="Page-1" id="0xqGve0vw2Na7XPcc0LU">
    <mxGraphModel dx="431" dy="205" grid="1" gridSize="10" guides="1" tooltips="1" connect="1" arrows="1" fold="1" page="1" pageScale="1" pageWidth="850" pageHeight="1100" math="0" shadow="0">
      <root>
        <mxCell id="0" />
        <mxCell id="1" parent="0" />
        <mxCell id="07nW_j8BIsR-kxo3l07p-1" value="" style="rounded=0;whiteSpace=wrap;html=1;" vertex="1" parent="1">
          <mxGeometry x="511" y="180" width="549" height="950" as="geometry" />
        </mxCell>
        <mxCell id="07nW_j8BIsR-kxo3l07p-2" value="" style="group" vertex="1" connectable="0" parent="1">
          <mxGeometry x="681" y="320" width="210" height="80" as="geometry" />
        </mxCell>
        <mxCell id="07nW_j8BIsR-kxo3l07p-3" value="" style="ellipse;whiteSpace=wrap;html=1;" vertex="1" parent="07nW_j8BIsR-kxo3l07p-2">
          <mxGeometry width="210" height="80" as="geometry" />
        </mxCell>
        <mxCell id="07nW_j8BIsR-kxo3l07p-4" value="&lt;font face=&quot;Tahoma&quot; style=&quot;font-size: 18px;&quot;&gt;Login&lt;/font&gt;" style="text;html=1;align=center;verticalAlign=middle;whiteSpace=wrap;rounded=0;" vertex="1" parent="07nW_j8BIsR-kxo3l07p-2">
          <mxGeometry x="70" y="25" width="60" height="30" as="geometry" />
        </mxCell>
        <mxCell id="07nW_j8BIsR-kxo3l07p-5" value="" style="group" vertex="1" connectable="0" parent="1">
          <mxGeometry x="680" y="550" width="210" height="80" as="geometry" />
        </mxCell>
        <mxCell id="07nW_j8BIsR-kxo3l07p-6" value="" style="ellipse;whiteSpace=wrap;html=1;" vertex="1" parent="07nW_j8BIsR-kxo3l07p-5">
          <mxGeometry width="210" height="80" as="geometry" />
        </mxCell>
        <mxCell id="07nW_j8BIsR-kxo3l07p-7" value="&lt;font face=&quot;Tahoma&quot; style=&quot;font-size: 18px;&quot;&gt;View Student Profiles&lt;/font&gt;" style="text;html=1;align=center;verticalAlign=middle;whiteSpace=wrap;rounded=0;" vertex="1" parent="07nW_j8BIsR-kxo3l07p-5">
          <mxGeometry x="10" y="25" width="190" height="30" as="geometry" />
        </mxCell>
        <mxCell id="07nW_j8BIsR-kxo3l07p-8" value="Batch Advisor" style="shape=umlActor;verticalLabelPosition=bottom;verticalAlign=top;html=1;outlineConnect=0;" vertex="1" parent="1">
          <mxGeometry x="350" y="415" width="40" height="90" as="geometry" />
        </mxCell>
        <mxCell id="07nW_j8BIsR-kxo3l07p-9" value="" style="endArrow=classic;html=1;rounded=0;exitX=1;exitY=0.3333333333333333;exitDx=0;exitDy=0;exitPerimeter=0;entryX=0;entryY=0.5;entryDx=0;entryDy=0;" edge="1" parent="1" source="07nW_j8BIsR-kxo3l07p-8" target="07nW_j8BIsR-kxo3l07p-3">
          <mxGeometry width="50" height="50" relative="1" as="geometry">
            <mxPoint x="400" y="805" as="sourcePoint" />
            <mxPoint x="670" y="365" as="targetPoint" />
          </mxGeometry>
        </mxCell>
        <mxCell id="07nW_j8BIsR-kxo3l07p-10" value="" style="endArrow=classic;html=1;rounded=0;exitX=1;exitY=0.3333333333333333;exitDx=0;exitDy=0;exitPerimeter=0;entryX=0;entryY=0.5;entryDx=0;entryDy=0;" edge="1" parent="1" source="07nW_j8BIsR-kxo3l07p-8" target="07nW_j8BIsR-kxo3l07p-6">
          <mxGeometry width="50" height="50" relative="1" as="geometry">
            <mxPoint x="400" y="455" as="sourcePoint" />
            <mxPoint x="680" y="375" as="targetPoint" />
          </mxGeometry>
        </mxCell>
        <mxCell id="07nW_j8BIsR-kxo3l07p-11" value="&lt;font face=&quot;Times New Roman&quot; style=&quot;font-size: 36px;&quot;&gt;&lt;b style=&quot;&quot;&gt;Batch Advisor View&lt;/b&gt;&lt;/font&gt;" style="text;html=1;align=center;verticalAlign=middle;whiteSpace=wrap;rounded=0;" vertex="1" parent="1">
          <mxGeometry x="555" y="200" width="440" height="50" as="geometry" />
        </mxCell>
        <mxCell id="07nW_j8BIsR-kxo3l07p-12" value="" style="endArrow=classic;html=1;rounded=0;exitX=1;exitY=0.3333333333333333;exitDx=0;exitDy=0;exitPerimeter=0;entryX=0;entryY=0.25;entryDx=0;entryDy=0;" edge="1" parent="1" source="07nW_j8BIsR-kxo3l07p-8" target="07nW_j8BIsR-kxo3l07p-15">
          <mxGeometry width="50" height="50" relative="1" as="geometry">
            <mxPoint x="400" y="455" as="sourcePoint" />
            <mxPoint x="600" y="580" as="targetPoint" />
          </mxGeometry>
        </mxCell>
        <mxCell id="07nW_j8BIsR-kxo3l07p-13" value="" style="group" vertex="1" connectable="0" parent="1">
          <mxGeometry x="590" y="660" width="190" height="80" as="geometry" />
        </mxCell>
        <mxCell id="07nW_j8BIsR-kxo3l07p-14" value="" style="ellipse;whiteSpace=wrap;html=1;" vertex="1" parent="07nW_j8BIsR-kxo3l07p-13">
          <mxGeometry width="190" height="80" as="geometry" />
        </mxCell>
        <mxCell id="07nW_j8BIsR-kxo3l07p-15" value="&lt;font face=&quot;Tahoma&quot; style=&quot;font-size: 18px;&quot;&gt;Allocate Courses&lt;/font&gt;" style="text;html=1;align=center;verticalAlign=middle;whiteSpace=wrap;rounded=0;" vertex="1" parent="07nW_j8BIsR-kxo3l07p-13">
          <mxGeometry x="9.047619047619047" y="25" width="171.9047619047619" height="30" as="geometry" />
        </mxCell>
        <mxCell id="07nW_j8BIsR-kxo3l07p-16" value="&amp;lt;&amp;lt;include&amp;gt;&amp;gt;" style="html=1;verticalAlign=bottom;labelBackgroundColor=none;endArrow=open;endFill=0;dashed=1;rounded=0;exitX=1;exitY=0.5;exitDx=0;exitDy=0;entryX=0;entryY=0.5;entryDx=0;entryDy=0;" edge="1" parent="1" source="07nW_j8BIsR-kxo3l07p-14" target="07nW_j8BIsR-kxo3l07p-30">
          <mxGeometry width="160" relative="1" as="geometry">
            <mxPoint x="780" y="684.38" as="sourcePoint" />
            <mxPoint x="880" y="690" as="targetPoint" />
          </mxGeometry>
        </mxCell>
        <mxCell id="07nW_j8BIsR-kxo3l07p-17" value="" style="group" vertex="1" connectable="0" parent="1">
          <mxGeometry x="690" y="830" width="210" height="80" as="geometry" />
        </mxCell>
        <mxCell id="07nW_j8BIsR-kxo3l07p-18" value="" style="ellipse;whiteSpace=wrap;html=1;" vertex="1" parent="07nW_j8BIsR-kxo3l07p-17">
          <mxGeometry width="210" height="80" as="geometry" />
        </mxCell>
        <mxCell id="07nW_j8BIsR-kxo3l07p-19" value="&lt;font face=&quot;Tahoma&quot; style=&quot;font-size: 18px;&quot;&gt;View Application&lt;/font&gt;" style="text;html=1;align=center;verticalAlign=middle;whiteSpace=wrap;rounded=0;" vertex="1" parent="07nW_j8BIsR-kxo3l07p-17">
          <mxGeometry x="10" y="25" width="190" height="30" as="geometry" />
        </mxCell>
        <mxCell id="07nW_j8BIsR-kxo3l07p-20" value="" style="group" vertex="1" connectable="0" parent="1">
          <mxGeometry x="810" y="990" width="190" height="70" as="geometry" />
        </mxCell>
        <mxCell id="07nW_j8BIsR-kxo3l07p-21" value="" style="ellipse;whiteSpace=wrap;html=1;" vertex="1" parent="07nW_j8BIsR-kxo3l07p-20">
          <mxGeometry width="190" height="70" as="geometry" />
        </mxCell>
        <mxCell id="07nW_j8BIsR-kxo3l07p-22" value="&lt;font face=&quot;Tahoma&quot; style=&quot;font-size: 18px;&quot;&gt;Reject Application&lt;/font&gt;" style="text;html=1;align=center;verticalAlign=middle;whiteSpace=wrap;rounded=0;" vertex="1" parent="07nW_j8BIsR-kxo3l07p-20">
          <mxGeometry x="9.047619047619047" y="21.875" width="171.9047619047619" height="26.25" as="geometry" />
        </mxCell>
        <mxCell id="07nW_j8BIsR-kxo3l07p-23" value="&amp;lt;&amp;lt;extend&amp;gt;&amp;gt;" style="html=1;verticalAlign=bottom;labelBackgroundColor=none;endArrow=open;endFill=0;dashed=1;rounded=0;exitX=0.5;exitY=0;exitDx=0;exitDy=0;entryX=0.5;entryY=1;entryDx=0;entryDy=0;" edge="1" parent="1" source="07nW_j8BIsR-kxo3l07p-27" target="07nW_j8BIsR-kxo3l07p-18">
          <mxGeometry width="160" relative="1" as="geometry">
            <mxPoint x="580" y="950" as="sourcePoint" />
            <mxPoint x="740" y="950" as="targetPoint" />
          </mxGeometry>
        </mxCell>
        <mxCell id="07nW_j8BIsR-kxo3l07p-24" value="&amp;lt;&amp;lt;extend&amp;gt;&amp;gt;" style="html=1;verticalAlign=bottom;labelBackgroundColor=none;endArrow=open;endFill=0;dashed=1;rounded=0;exitX=0.5;exitY=0;exitDx=0;exitDy=0;entryX=0.5;entryY=1;entryDx=0;entryDy=0;" edge="1" parent="1" source="07nW_j8BIsR-kxo3l07p-21" target="07nW_j8BIsR-kxo3l07p-18">
          <mxGeometry width="160" relative="1" as="geometry">
            <mxPoint x="740" y="940" as="sourcePoint" />
            <mxPoint x="770" y="920" as="targetPoint" />
          </mxGeometry>
        </mxCell>
        <mxCell id="07nW_j8BIsR-kxo3l07p-25" value="" style="endArrow=classic;html=1;rounded=0;exitX=1;exitY=0.3333333333333333;exitDx=0;exitDy=0;exitPerimeter=0;entryX=0;entryY=0.5;entryDx=0;entryDy=0;" edge="1" parent="1" source="07nW_j8BIsR-kxo3l07p-8" target="07nW_j8BIsR-kxo3l07p-18">
          <mxGeometry width="50" height="50" relative="1" as="geometry">
            <mxPoint x="400" y="455" as="sourcePoint" />
            <mxPoint x="609" y="593" as="targetPoint" />
          </mxGeometry>
        </mxCell>
        <mxCell id="07nW_j8BIsR-kxo3l07p-26" value="" style="group" vertex="1" connectable="0" parent="1">
          <mxGeometry x="570" y="990" width="190" height="70" as="geometry" />
        </mxCell>
        <mxCell id="07nW_j8BIsR-kxo3l07p-27" value="" style="ellipse;whiteSpace=wrap;html=1;" vertex="1" parent="07nW_j8BIsR-kxo3l07p-26">
          <mxGeometry width="190" height="70" as="geometry" />
        </mxCell>
        <mxCell id="07nW_j8BIsR-kxo3l07p-28" value="&lt;font face=&quot;Tahoma&quot; style=&quot;font-size: 18px;&quot;&gt;Approve Application&lt;/font&gt;" style="text;html=1;align=center;verticalAlign=middle;whiteSpace=wrap;rounded=0;" vertex="1" parent="07nW_j8BIsR-kxo3l07p-26">
          <mxGeometry x="9.047619047619047" y="21.875" width="171.9047619047619" height="26.25" as="geometry" />
        </mxCell>
        <mxCell id="07nW_j8BIsR-kxo3l07p-29" value="" style="group" vertex="1" connectable="0" parent="1">
          <mxGeometry x="880" y="665" width="140" height="70" as="geometry" />
        </mxCell>
        <mxCell id="07nW_j8BIsR-kxo3l07p-30" value="" style="ellipse;whiteSpace=wrap;html=1;" vertex="1" parent="07nW_j8BIsR-kxo3l07p-29">
          <mxGeometry width="140" height="70" as="geometry" />
        </mxCell>
        <mxCell id="07nW_j8BIsR-kxo3l07p-31" value="&lt;font face=&quot;Tahoma&quot; style=&quot;font-size: 18px;&quot;&gt;View SOS&lt;/font&gt;" style="text;html=1;align=center;verticalAlign=middle;whiteSpace=wrap;rounded=0;" vertex="1" parent="07nW_j8BIsR-kxo3l07p-29">
          <mxGeometry x="6.666666666666667" y="21.875" width="126.66666666666667" height="26.25" as="geometry" />
        </mxCell>
        <mxCell id="07nW_j8BIsR-kxo3l07p-32" value="" style="group" vertex="1" connectable="0" parent="1">
          <mxGeometry x="570" y="440" width="190" height="80" as="geometry" />
        </mxCell>
        <mxCell id="07nW_j8BIsR-kxo3l07p-33" value="" style="ellipse;whiteSpace=wrap;html=1;" vertex="1" parent="07nW_j8BIsR-kxo3l07p-32">
          <mxGeometry width="190" height="80" as="geometry" />
        </mxCell>
        <mxCell id="07nW_j8BIsR-kxo3l07p-34" value="&lt;font face=&quot;Tahoma&quot; style=&quot;font-size: 18px;&quot;&gt;Forgot Credentials&lt;span style=&quot;white-space: pre;&quot;&gt;&#x9;&lt;/span&gt;&lt;/font&gt;" style="text;html=1;align=center;verticalAlign=middle;whiteSpace=wrap;rounded=0;" vertex="1" parent="07nW_j8BIsR-kxo3l07p-32">
          <mxGeometry x="9.047619047619047" y="25" width="171.9047619047619" height="30" as="geometry" />
        </mxCell>
        <mxCell id="07nW_j8BIsR-kxo3l07p-35" value="&amp;lt;&amp;lt;include&amp;gt;&amp;gt;" style="html=1;verticalAlign=bottom;labelBackgroundColor=none;endArrow=open;endFill=0;dashed=1;rounded=0;exitX=1;exitY=0.5;exitDx=0;exitDy=0;entryX=0;entryY=0.5;entryDx=0;entryDy=0;" edge="1" parent="1" source="07nW_j8BIsR-kxo3l07p-33" target="07nW_j8BIsR-kxo3l07p-37">
          <mxGeometry width="160" relative="1" as="geometry">
            <mxPoint x="760" y="459.38" as="sourcePoint" />
            <mxPoint x="860" y="480" as="targetPoint" />
          </mxGeometry>
        </mxCell>
        <mxCell id="07nW_j8BIsR-kxo3l07p-36" value="" style="group" vertex="1" connectable="0" parent="1">
          <mxGeometry x="860" y="445" width="140" height="70" as="geometry" />
        </mxCell>
        <mxCell id="07nW_j8BIsR-kxo3l07p-37" value="" style="ellipse;whiteSpace=wrap;html=1;" vertex="1" parent="07nW_j8BIsR-kxo3l07p-36">
          <mxGeometry width="140" height="70" as="geometry" />
        </mxCell>
        <mxCell id="07nW_j8BIsR-kxo3l07p-38" value="&lt;font face=&quot;Tahoma&quot; style=&quot;font-size: 18px;&quot;&gt;Contact Admin&lt;/font&gt;" style="text;html=1;align=center;verticalAlign=middle;whiteSpace=wrap;rounded=0;" vertex="1" parent="07nW_j8BIsR-kxo3l07p-36">
          <mxGeometry x="6.666666666666667" y="21.875" width="126.66666666666667" height="26.25" as="geometry" />
        </mxCell>
        <mxCell id="07nW_j8BIsR-kxo3l07p-39" value="" style="endArrow=classic;html=1;rounded=0;exitX=1;exitY=0.3333333333333333;exitDx=0;exitDy=0;exitPerimeter=0;entryX=0;entryY=0.5;entryDx=0;entryDy=0;" edge="1" parent="1" source="07nW_j8BIsR-kxo3l07p-8" target="07nW_j8BIsR-kxo3l07p-33">
          <mxGeometry width="50" height="50" relative="1" as="geometry">
            <mxPoint x="400" y="455" as="sourcePoint" />
            <mxPoint x="670" y="600" as="targetPoint" />
          </mxGeometry>
        </mxCell>
      </root>
    </mxGraphModel>
  </diagram>
</mxfile>
